<svg width="43" height="12" viewBox="0 0 43 12" fill="none" xmlns="http://www.w3.org/2000/svg">
<path d="M4.40039 7.61719V0H6.09961V9H4.57031L4.40039 7.61719ZM0.392578 5.90625V5.7832C0.392578 5.29883 0.447266 4.85938 0.556641 4.46484C0.666016 4.06641 0.826172 3.72461 1.03711 3.43945C1.24805 3.1543 1.50781 2.93359 1.81641 2.77734C2.125 2.62109 2.47656 2.54297 2.87109 2.54297C3.24219 2.54297 3.56641 2.62109 3.84375 2.77734C4.125 2.93359 4.36328 3.15625 4.55859 3.44531C4.75781 3.73047 4.91797 4.06836 5.03906 4.45898C5.16016 4.8457 5.24805 5.26953 5.30273 5.73047V6C5.24805 6.44141 5.16016 6.85156 5.03906 7.23047C4.91797 7.60938 4.75781 7.94141 4.55859 8.22656C4.36328 8.50781 4.125 8.72656 3.84375 8.88281C3.5625 9.03906 3.23438 9.11719 2.85938 9.11719C2.46484 9.11719 2.11328 9.03711 1.80469 8.87695C1.5 8.7168 1.24219 8.49219 1.03125 8.20312C0.824219 7.91406 0.666016 7.57422 0.556641 7.18359C0.447266 6.79297 0.392578 6.36719 0.392578 5.90625ZM2.08008 5.7832V5.90625C2.08008 6.16797 2.09961 6.41211 2.13867 6.63867C2.18164 6.86523 2.25 7.06641 2.34375 7.24219C2.44141 7.41406 2.56641 7.54883 2.71875 7.64648C2.875 7.74023 3.06445 7.78711 3.28711 7.78711C3.57617 7.78711 3.81445 7.72266 4.00195 7.59375C4.18945 7.46094 4.33203 7.2793 4.42969 7.04883C4.53125 6.81836 4.58984 6.55273 4.60547 6.25195V5.48438C4.59375 5.23828 4.55859 5.01758 4.5 4.82227C4.44531 4.62305 4.36328 4.45312 4.25391 4.3125C4.14844 4.17188 4.01562 4.0625 3.85547 3.98438C3.69922 3.90625 3.51367 3.86719 3.29883 3.86719C3.08008 3.86719 2.89258 3.91797 2.73633 4.01953C2.58008 4.11719 2.45312 4.25195 2.35547 4.42383C2.26172 4.5957 2.19141 4.79883 2.14453 5.0332C2.10156 5.26367 2.08008 5.51367 2.08008 5.7832ZM10.8398 7.57031V4.74609C10.8398 4.54297 10.8066 4.36914 10.7402 4.22461C10.6738 4.07617 10.5703 3.96094 10.4297 3.87891C10.293 3.79688 10.1152 3.75586 9.89648 3.75586C9.70898 3.75586 9.54688 3.78906 9.41016 3.85547C9.27344 3.91797 9.16797 4.00977 9.09375 4.13086C9.01953 4.24805 8.98242 4.38672 8.98242 4.54688H7.29492C7.29492 4.27734 7.35742 4.02148 7.48242 3.7793C7.60742 3.53711 7.78906 3.32422 8.02734 3.14062C8.26562 2.95312 8.54883 2.80664 8.87695 2.70117C9.20898 2.5957 9.58008 2.54297 9.99023 2.54297C10.4824 2.54297 10.9199 2.625 11.3027 2.78906C11.6855 2.95312 11.9863 3.19922 12.2051 3.52734C12.4277 3.85547 12.5391 4.26562 12.5391 4.75781V7.4707C12.5391 7.81836 12.5605 8.10352 12.6035 8.32617C12.6465 8.54492 12.709 8.73633 12.791 8.90039V9H11.0859C11.0039 8.82812 10.9414 8.61328 10.8984 8.35547C10.8594 8.09375 10.8398 7.83203 10.8398 7.57031ZM11.0625 5.13867L11.0742 6.09375H10.1309C9.9082 6.09375 9.71484 6.11914 9.55078 6.16992C9.38672 6.2207 9.25195 6.29297 9.14648 6.38672C9.04102 6.47656 8.96289 6.58203 8.91211 6.70312C8.86523 6.82422 8.8418 6.95703 8.8418 7.10156C8.8418 7.24609 8.875 7.37695 8.94141 7.49414C9.00781 7.60742 9.10352 7.69727 9.22852 7.76367C9.35352 7.82617 9.5 7.85742 9.66797 7.85742C9.92188 7.85742 10.1426 7.80664 10.3301 7.70508C10.5176 7.60352 10.6621 7.47852 10.7637 7.33008C10.8691 7.18164 10.9238 7.04102 10.9277 6.9082L11.373 7.62305C11.3105 7.7832 11.2246 7.94922 11.1152 8.12109C11.0098 8.29297 10.875 8.45508 10.7109 8.60742C10.5469 8.75586 10.3496 8.87891 10.1191 8.97656C9.88867 9.07031 9.61523 9.11719 9.29883 9.11719C8.89648 9.11719 8.53125 9.03711 8.20312 8.87695C7.87891 8.71289 7.62109 8.48828 7.42969 8.20312C7.24219 7.91406 7.14844 7.58594 7.14844 7.21875C7.14844 6.88672 7.21094 6.5918 7.33594 6.33398C7.46094 6.07617 7.64453 5.85938 7.88672 5.68359C8.13281 5.50391 8.43945 5.36914 8.80664 5.2793C9.17383 5.18555 9.59961 5.13867 10.084 5.13867H11.0625ZM17.2676 7.24805C17.2676 7.12695 17.2324 7.01758 17.1621 6.91992C17.0918 6.82227 16.9609 6.73242 16.7695 6.65039C16.582 6.56445 16.3105 6.48633 15.9551 6.41602C15.6348 6.3457 15.3359 6.25781 15.0586 6.15234C14.7852 6.04297 14.5469 5.91211 14.3438 5.75977C14.1445 5.60742 13.9883 5.42773 13.875 5.2207C13.7617 5.00977 13.7051 4.76953 13.7051 4.5C13.7051 4.23438 13.7617 3.98438 13.875 3.75C13.9922 3.51562 14.1582 3.30859 14.373 3.12891C14.5918 2.94531 14.8574 2.80273 15.1699 2.70117C15.4863 2.5957 15.8418 2.54297 16.2363 2.54297C16.7871 2.54297 17.2598 2.63086 17.6543 2.80664C18.0527 2.98242 18.3574 3.22461 18.5684 3.5332C18.7832 3.83789 18.8906 4.18555 18.8906 4.57617H17.2031C17.2031 4.41211 17.168 4.26562 17.0977 4.13672C17.0312 4.00391 16.9258 3.90039 16.7812 3.82617C16.6406 3.74805 16.457 3.70898 16.2305 3.70898C16.043 3.70898 15.8809 3.74219 15.7441 3.80859C15.6074 3.87109 15.502 3.95703 15.4277 4.06641C15.3574 4.17188 15.3223 4.28906 15.3223 4.41797C15.3223 4.51562 15.3418 4.60352 15.3809 4.68164C15.4238 4.75586 15.4922 4.82422 15.5859 4.88672C15.6797 4.94922 15.8008 5.00781 15.9492 5.0625C16.1016 5.11328 16.2891 5.16016 16.5117 5.20312C16.9688 5.29688 17.377 5.41992 17.7363 5.57227C18.0957 5.7207 18.3809 5.92383 18.5918 6.18164C18.8027 6.43555 18.9082 6.76953 18.9082 7.18359C18.9082 7.46484 18.8457 7.72266 18.7207 7.95703C18.5957 8.19141 18.416 8.39648 18.1816 8.57227C17.9473 8.74414 17.666 8.87891 17.3379 8.97656C17.0137 9.07031 16.6484 9.11719 16.2422 9.11719C15.6523 9.11719 15.1523 9.01172 14.7422 8.80078C14.3359 8.58984 14.0273 8.32227 13.8164 7.99805C13.6094 7.66992 13.5059 7.33398 13.5059 6.99023H15.1055C15.1133 7.2207 15.1719 7.40625 15.2812 7.54688C15.3945 7.6875 15.5371 7.78906 15.709 7.85156C15.8848 7.91406 16.0742 7.94531 16.2773 7.94531C16.4961 7.94531 16.6777 7.91602 16.8223 7.85742C16.9668 7.79492 17.0762 7.71289 17.1504 7.61133C17.2285 7.50586 17.2676 7.38477 17.2676 7.24805ZM21.6504 0V9H19.9629V0H21.6504ZM21.4102 5.60742H20.9473C20.9512 5.16602 21.0098 4.75977 21.123 4.38867C21.2363 4.01367 21.3984 3.68945 21.6094 3.41602C21.8203 3.13867 22.0723 2.92383 22.3652 2.77148C22.6621 2.61914 22.9902 2.54297 23.3496 2.54297C23.6621 2.54297 23.9453 2.58789 24.1992 2.67773C24.457 2.76367 24.6777 2.9043 24.8613 3.09961C25.0488 3.29102 25.1934 3.54297 25.2949 3.85547C25.3965 4.16797 25.4473 4.54688 25.4473 4.99219V9H23.748V4.98047C23.748 4.69922 23.707 4.47852 23.625 4.31836C23.5469 4.1543 23.4316 4.03906 23.2793 3.97266C23.1309 3.90234 22.9473 3.86719 22.7285 3.86719C22.4863 3.86719 22.2793 3.91211 22.1074 4.00195C21.9395 4.0918 21.8047 4.2168 21.7031 4.37695C21.6016 4.5332 21.5273 4.7168 21.4805 4.92773C21.4336 5.13867 21.4102 5.36523 21.4102 5.60742ZM30.7441 2.66016H32.2734V8.78906C32.2734 9.36719 32.1445 9.85742 31.8867 10.2598C31.6328 10.666 31.2773 10.9727 30.8203 11.1797C30.3633 11.3906 29.832 11.4961 29.2266 11.4961C28.9609 11.4961 28.6797 11.4609 28.3828 11.3906C28.0898 11.3203 27.8086 11.2109 27.5391 11.0625C27.2734 10.9141 27.0508 10.7266 26.8711 10.5L27.6152 9.50391C27.8105 9.73047 28.0371 9.90625 28.2949 10.0312C28.5527 10.1602 28.8379 10.2246 29.1504 10.2246C29.4551 10.2246 29.7129 10.168 29.9238 10.0547C30.1348 9.94531 30.2969 9.7832 30.4102 9.56836C30.5234 9.35742 30.5801 9.10156 30.5801 8.80078V4.125L30.7441 2.66016ZM26.4785 5.90625V5.7832C26.4785 5.29883 26.5371 4.85938 26.6543 4.46484C26.7754 4.06641 26.9453 3.72461 27.1641 3.43945C27.3867 3.1543 27.6562 2.93359 27.9727 2.77734C28.2891 2.62109 28.6465 2.54297 29.0449 2.54297C29.4668 2.54297 29.8203 2.62109 30.1055 2.77734C30.3906 2.93359 30.625 3.15625 30.8086 3.44531C30.9922 3.73047 31.1348 4.06836 31.2363 4.45898C31.3418 4.8457 31.4238 5.26953 31.4824 5.73047V6C31.4238 6.44141 31.3359 6.85156 31.2188 7.23047C31.1016 7.60938 30.9473 7.94141 30.7559 8.22656C30.5645 8.50781 30.3262 8.72656 30.041 8.88281C29.7598 9.03906 29.4238 9.11719 29.0332 9.11719C28.6426 9.11719 28.2891 9.03711 27.9727 8.87695C27.6602 8.7168 27.3926 8.49219 27.1699 8.20312C26.9473 7.91406 26.7754 7.57422 26.6543 7.18359C26.5371 6.79297 26.4785 6.36719 26.4785 5.90625ZM28.166 5.7832V5.90625C28.166 6.16797 28.1914 6.41211 28.2422 6.63867C28.293 6.86523 28.3711 7.06641 28.4766 7.24219C28.5859 7.41406 28.7207 7.54883 28.8809 7.64648C29.0449 7.74023 29.2383 7.78711 29.4609 7.78711C29.7695 7.78711 30.0215 7.72266 30.2168 7.59375C30.4121 7.46094 30.5586 7.2793 30.6562 7.04883C30.7539 6.81836 30.8105 6.55273 30.8262 6.25195V5.48438C30.8184 5.23828 30.7852 5.01758 30.7266 4.82227C30.668 4.62305 30.5859 4.45312 30.4805 4.3125C30.375 4.17188 30.2383 4.0625 30.0703 3.98438C29.9023 3.90625 29.7031 3.86719 29.4727 3.86719C29.25 3.86719 29.0566 3.91797 28.8926 4.01953C28.7324 4.11719 28.5977 4.25195 28.4883 4.42383C28.3828 4.5957 28.3027 4.79883 28.248 5.0332C28.1934 5.26367 28.166 5.51367 28.166 5.7832ZM33.3164 5.89453V5.77148C33.3164 5.30664 33.3828 4.87891 33.5156 4.48828C33.6484 4.09375 33.8418 3.75195 34.0957 3.46289C34.3496 3.17383 34.6621 2.94922 35.0332 2.78906C35.4043 2.625 35.8301 2.54297 36.3105 2.54297C36.791 2.54297 37.2188 2.625 37.5938 2.78906C37.9688 2.94922 38.2832 3.17383 38.5371 3.46289C38.7949 3.75195 38.9902 4.09375 39.123 4.48828C39.2559 4.87891 39.3223 5.30664 39.3223 5.77148V5.89453C39.3223 6.35547 39.2559 6.7832 39.123 7.17773C38.9902 7.56836 38.7949 7.91016 38.5371 8.20312C38.2832 8.49219 37.9707 8.7168 37.5996 8.87695C37.2285 9.03711 36.8027 9.11719 36.3223 9.11719C35.8418 9.11719 35.4141 9.03711 35.0391 8.87695C34.668 8.7168 34.3535 8.49219 34.0957 8.20312C33.8418 7.91016 33.6484 7.56836 33.5156 7.17773C33.3828 6.7832 33.3164 6.35547 33.3164 5.89453ZM35.0039 5.77148V5.89453C35.0039 6.16016 35.0273 6.4082 35.0742 6.63867C35.1211 6.86914 35.1953 7.07227 35.2969 7.24805C35.4023 7.41992 35.5391 7.55469 35.707 7.65234C35.875 7.75 36.0801 7.79883 36.3223 7.79883C36.5566 7.79883 36.7578 7.75 36.9258 7.65234C37.0938 7.55469 37.2285 7.41992 37.3301 7.24805C37.4316 7.07227 37.5059 6.86914 37.5527 6.63867C37.6035 6.4082 37.6289 6.16016 37.6289 5.89453V5.77148C37.6289 5.51367 37.6035 5.27148 37.5527 5.04492C37.5059 4.81445 37.4297 4.61133 37.3242 4.43555C37.2227 4.25586 37.0879 4.11523 36.9199 4.01367C36.752 3.91211 36.5488 3.86133 36.3105 3.86133C36.0723 3.86133 35.8691 3.91211 35.7012 4.01367C35.5371 4.11523 35.4023 4.25586 35.2969 4.43555C35.1953 4.61133 35.1211 4.81445 35.0742 5.04492C35.0273 5.27148 35.0039 5.51367 35.0039 5.77148Z" fill="white"/>
<path d="M40.4414 8.18555C40.4414 7.93555 40.5273 7.72656 40.6992 7.55859C40.875 7.39062 41.1074 7.30664 41.3965 7.30664C41.6855 7.30664 41.916 7.39062 42.0879 7.55859C42.2637 7.72656 42.3516 7.93555 42.3516 8.18555C42.3516 8.43555 42.2637 8.64453 42.0879 8.8125C41.916 8.98047 41.6855 9.06445 41.3965 9.06445C41.1074 9.06445 40.875 8.98047 40.6992 8.8125C40.5273 8.64453 40.4414 8.43555 40.4414 8.18555Z" fill="#D53F8C"/>
</svg>
